<?xml version="1.0" standalone="no"?>
<!DOCTYPE svg PUBLIC "-//W3C//DTD SVG 20010904//EN"
 "http://www.w3.org/TR/2001/REC-SVG-20010904/DTD/svg10.dtd">
<svg version="1.0" xmlns="http://www.w3.org/2000/svg"
 width="500.000000pt" height="500.000000pt" viewBox="0 0 500.000000 500.000000"
 preserveAspectRatio="xMidYMid meet">

<g transform="translate(0.000000,500.000000) scale(0.100000,-0.100000)"
fill="#000000" stroke="none">
<path d="M3460 4140 c-104 -13 -187 -38 -279 -85 -121 -60 -182 -108 -404
-315 -76 -71 -171 -159 -271 -252 -105 -97 -220 -205 -322 -303 -104 -100
-246 -235 -270 -257 -28 -25 -315 -297 -420 -396 -50 -48 -140 -134 -201 -192
-196 -187 -337 -329 -377 -379 -164 -203 -236 -468 -192 -711 36 -200 138
-365 316 -515 54 -46 196 -113 290 -137 105 -27 308 -30 410 -6 241 58 334
129 925 706 94 91 267 259 385 374 535 521 928 909 1045 1033 131 140 143 155
189 248 61 124 86 238 85 380 -1 171 -16 235 -90 382 -43 86 -67 120 -134 188
-76 78 -185 157 -217 157 -7 0 -24 7 -37 16 -67 47 -297 81 -431 64z m123 -67
c-7 -2 -19 -2 -25 0 -7 3 -2 5 12 5 14 0 19 -2 13 -5z m3 -324 c29 -27 32 -78
7 -106 -10 -11 -76 -68 -148 -127 -71 -59 -166 -138 -210 -177 -44 -38 -120
-103 -170 -144 -49 -41 -133 -110 -185 -154 -100 -84 -199 -146 -181 -113 17
33 126 160 245 289 375 403 512 546 531 554 31 13 85 2 111 -22z m-1427 -819
c188 -101 517 -408 760 -712 96 -121 185 -261 203 -321 l12 -41 -234 -229
c-641 -627 -834 -805 -942 -869 -371 -221 -848 -109 -1067 249 -48 78 -90 203
-103 307 -10 79 -9 109 5 194 29 178 94 313 220 454 59 67 370 366 817 786
161 152 232 212 249 212 13 0 49 -14 80 -30z"/>
</g>
</svg>
